<svg xmlns="http://www.w3.org/2000/svg" width="224" height="54" viewBox="0 0 224 54" fill="none"> <path d="M57.2799 24.0739C58.3707 24.4193 59.2252 25.001 59.8433 25.8191C60.4614 26.619 60.7704 27.6098 60.7704 28.7915C60.7704 30.464 60.116 31.7548 58.807 32.6638C57.5163 33.5546 55.6256 34 53.135 34H43.2634V14.9113H52.5896C54.9166 14.9113 56.6982 15.3567 57.9344 16.2475C59.1888 17.1383 59.816 18.3473 59.816 19.8744C59.816 20.8015 59.5888 21.6287 59.1343 22.3559C58.6979 23.0831 58.0798 23.6557 57.2799 24.0739ZM47.6538 18.2382V22.7377H52.0442C53.135 22.7377 53.9621 22.5468 54.5257 22.165C55.0893 21.7832 55.3711 21.2197 55.3711 20.4743C55.3711 19.7289 55.0893 19.1744 54.5257 18.8109C53.9621 18.4291 53.135 18.2382 52.0442 18.2382H47.6538ZM52.8077 30.6731C53.9712 30.6731 54.8438 30.4822 55.4256 30.1005C56.0255 29.7187 56.3255 29.1278 56.3255 28.3279C56.3255 26.7463 55.1529 25.9555 52.8077 25.9555H47.6538V30.6731H52.8077ZM78.8951 30.455V34H64.115V14.9113H78.5406V18.4563H68.5054V22.6013H77.368V26.0373H68.5054V30.455H78.8951ZM88.6821 34.3272C87.1732 34.3272 85.7097 34.1273 84.2917 33.7273C82.8919 33.3092 81.7647 32.7729 80.9103 32.1184L82.4101 28.7915C83.2282 29.3914 84.2008 29.8732 85.328 30.2368C86.4551 30.6004 87.5822 30.7822 88.7094 30.7822C89.9638 30.7822 90.8909 30.6004 91.4909 30.2368C92.0908 29.855 92.3908 29.3551 92.3908 28.737C92.3908 28.2825 92.209 27.9098 91.8454 27.6189C91.5 27.3099 91.0455 27.0644 90.4819 26.8826C89.9365 26.7008 89.1911 26.5009 88.2458 26.2827C86.7914 25.9373 85.6006 25.5919 84.6735 25.2465C83.7463 24.9011 82.9464 24.3466 82.2738 23.583C81.6193 22.8195 81.2921 21.8014 81.2921 20.5288C81.2921 19.4199 81.592 18.42 82.192 17.5292C82.7919 16.6202 83.6918 15.9021 84.8916 15.3749C86.1097 14.8477 87.5913 14.5841 89.3366 14.5841C90.5546 14.5841 91.7454 14.7295 92.9089 15.0204C94.0724 15.3113 95.0905 15.7294 95.9631 16.2748L94.5996 19.6289C92.8362 18.6291 91.0727 18.1291 89.3093 18.1291C88.0731 18.1291 87.155 18.3291 86.5551 18.729C85.9733 19.129 85.6825 19.6562 85.6825 20.3107C85.6825 20.9651 86.0188 21.456 86.6914 21.7832C87.3823 22.0923 88.4276 22.4013 89.8274 22.7104C91.2818 23.0558 92.4726 23.4012 93.3997 23.7466C94.3269 24.0921 95.1177 24.6374 95.7722 25.3828C96.4448 26.1282 96.7812 27.1372 96.7812 28.4097C96.7812 29.5005 96.4721 30.5004 95.854 31.4094C95.2541 32.3002 94.3451 33.0092 93.127 33.5364C91.909 34.0636 90.4274 34.3272 88.6821 34.3272ZM103.488 18.5109H97.3792V14.9113H114.014V18.5109H107.905V34H103.488V18.5109ZM124.113 14.9113H128.531V34H124.113V14.9113ZM150.568 14.9113V34H146.941L137.424 22.4104V34H133.061V14.9113H136.715L146.205 26.5009V14.9113H150.568ZM161.357 34.3272C159.848 34.3272 158.384 34.1273 156.966 33.7273C155.566 33.3092 154.439 32.7729 153.585 32.1184L155.085 28.7915C155.903 29.3914 156.875 29.8732 158.002 30.2368C159.13 30.6004 160.257 30.7822 161.384 30.7822C162.638 30.7822 163.565 30.6004 164.165 30.2368C164.765 29.855 165.065 29.3551 165.065 28.737C165.065 28.2825 164.883 27.9098 164.52 27.6189C164.174 27.3099 163.72 27.0644 163.156 26.8826C162.611 26.7008 161.866 26.5009 160.92 26.2827C159.466 25.9373 158.275 25.5919 157.348 25.2465C156.421 24.9011 155.621 24.3466 154.948 23.583C154.294 22.8195 153.967 21.8014 153.967 20.5288C153.967 19.4199 154.266 18.42 154.866 17.5292C155.466 16.6202 156.366 15.9021 157.566 15.3749C158.784 14.8477 160.266 14.5841 162.011 14.5841C163.229 14.5841 164.42 14.7295 165.583 15.0204C166.747 15.3113 167.765 15.7294 168.638 16.2748L167.274 19.6289C165.511 18.6291 163.747 18.1291 161.984 18.1291C160.748 18.1291 159.829 18.3291 159.23 18.729C158.648 19.129 158.357 19.6562 158.357 20.3107C158.357 20.9651 158.693 21.456 159.366 21.7832C160.057 22.0923 161.102 22.4013 162.502 22.7104C163.956 23.0558 165.147 23.4012 166.074 23.7466C167.001 24.0921 167.792 24.6374 168.447 25.3828C169.119 26.1282 169.456 27.1372 169.456 28.4097C169.456 29.5005 169.147 30.5004 168.528 31.4094C167.929 32.3002 167.02 33.0092 165.802 33.5364C164.583 34.0636 163.102 34.3272 161.357 34.3272ZM176.162 18.5109H170.054V14.9113H186.688V18.5109H180.58V34H176.162V18.5109ZM200.678 29.9096H191.815L190.124 34H185.597L194.106 14.9113H198.469L207.004 34H202.368L200.678 29.9096ZM199.287 26.5554L196.26 19.2472L193.233 26.5554H199.287ZM208.985 14.9113H213.402V30.4004H222.974V34H208.985V14.9113Z" fill="#2C2C2C"/> <path opacity="0.7" d="M44.0247 41.1684H45.0007V48H44.0247V41.1684ZM49.6713 42.7787C50.3284 42.7787 50.8489 42.9706 51.2328 43.3545C51.6231 43.7319 51.8183 44.2882 51.8183 45.0234V48H50.8814V45.1307C50.8814 44.6297 50.7611 44.2524 50.5203 43.9986C50.2796 43.7449 49.9348 43.618 49.4858 43.618C48.9783 43.618 48.5782 43.7677 48.2854 44.067C47.9926 44.3597 47.8462 44.7826 47.8462 45.3357V48H46.9093V42.8275H47.8072V43.6083C47.9959 43.3415 48.2496 43.1366 48.5684 42.9934C48.8937 42.8503 49.2614 42.7787 49.6713 42.7787ZM55.0357 48.0586C54.6127 48.0586 54.2061 48.0033 53.8157 47.8926C53.4253 47.7755 53.1196 47.6291 52.8983 47.4535L53.2887 46.7118C53.5164 46.8744 53.793 47.0045 54.1183 47.1021C54.4436 47.1997 54.7721 47.2485 55.104 47.2485C55.9238 47.2485 56.3337 47.0143 56.3337 46.5458C56.3337 46.3897 56.2784 46.2661 56.1677 46.175C56.0571 46.0839 55.9173 46.0188 55.7481 45.9798C55.5854 45.9343 55.3512 45.8855 55.0454 45.8334C54.629 45.7683 54.2874 45.6935 54.0207 45.6089C53.7604 45.5244 53.536 45.3812 53.3473 45.1795C53.1586 44.9778 53.0643 44.6948 53.0643 44.3305C53.0643 43.862 53.2594 43.4879 53.6498 43.2081C54.0402 42.9218 54.5639 42.7787 55.2211 42.7787C55.5659 42.7787 55.9107 42.821 56.2556 42.9056C56.6004 42.9902 56.8834 43.104 57.1047 43.2472L56.7045 43.9889C56.2816 43.7156 55.7839 43.579 55.2113 43.579C54.8144 43.579 54.5119 43.644 54.3037 43.7742C54.0955 43.9043 53.9914 44.0767 53.9914 44.2914C53.9914 44.4606 54.05 44.594 54.1671 44.6916C54.2842 44.7892 54.4273 44.8607 54.5965 44.9063C54.7721 44.9518 55.0161 45.0039 55.3284 45.0624C55.7448 45.134 56.0799 45.2121 56.3337 45.2966C56.5939 45.3747 56.8151 45.5113 56.9973 45.7065C57.1795 45.9017 57.2706 46.175 57.2706 46.5263C57.2706 46.9948 57.0689 47.3689 56.6655 47.6487C56.2686 47.9219 55.7253 48.0586 55.0357 48.0586ZM61.3498 47.6975C61.2131 47.8146 61.044 47.9057 60.8423 47.9707C60.6406 48.0293 60.4324 48.0586 60.2177 48.0586C59.6972 48.0586 59.2938 47.9187 59.0075 47.6389C58.7212 47.3591 58.5781 46.959 58.5781 46.4385V43.5985H57.6997V42.8275H58.5781V41.6954H59.515V42.8275H60.9984V43.5985H59.515V46.3995C59.515 46.6792 59.5833 46.8939 59.7199 47.0436C59.8631 47.1932 60.0648 47.268 60.325 47.268C60.6113 47.268 60.8553 47.1867 61.057 47.0241L61.3498 47.6975ZM64.366 42.7787C65.0817 42.7787 65.6283 42.9544 66.0056 43.3057C66.3895 43.6571 66.5814 44.1808 66.5814 44.877V48H65.6933V47.3168C65.5372 47.5576 65.3127 47.743 65.0199 47.8731C64.7336 47.9967 64.3921 48.0586 63.9952 48.0586C63.4161 48.0586 62.9509 47.9187 62.5996 47.6389C62.2548 47.3591 62.0823 46.9915 62.0823 46.5361C62.0823 46.0806 62.2482 45.7163 62.5801 45.443C62.9119 45.1633 63.4389 45.0234 64.1611 45.0234H65.6445V44.8379C65.6445 44.4346 65.5274 44.1255 65.2932 43.9108C65.059 43.6961 64.7141 43.5887 64.2587 43.5887C63.9529 43.5887 63.6536 43.6408 63.3608 43.7449C63.068 43.8425 62.8208 43.9759 62.6191 44.145L62.2287 43.4424C62.4955 43.2276 62.8143 43.065 63.1851 42.9544C63.556 42.8373 63.9496 42.7787 64.366 42.7787ZM64.1513 47.3364C64.5092 47.3364 64.8182 47.2583 65.0785 47.1021C65.3387 46.9395 65.5274 46.7118 65.6445 46.419V45.6968H64.2001C63.4064 45.6968 63.0095 45.9635 63.0095 46.497C63.0095 46.7573 63.1103 46.9622 63.312 47.1119C63.5137 47.2615 63.7935 47.3364 64.1513 47.3364ZM68.3153 40.7585H69.2522V48H68.3153V40.7585ZM72.9246 42.7787C73.6403 42.7787 74.1868 42.9544 74.5642 43.3057C74.948 43.6571 75.14 44.1808 75.14 44.877V48H74.2519V47.3168C74.0957 47.5576 73.8713 47.743 73.5785 47.8731C73.2922 47.9967 72.9506 48.0586 72.5537 48.0586C71.9747 48.0586 71.5095 47.9187 71.1581 47.6389C70.8133 47.3591 70.6409 46.9915 70.6409 46.5361C70.6409 46.0806 70.8068 45.7163 71.1386 45.443C71.4704 45.1633 71.9974 45.0234 72.7196 45.0234H74.2031V44.8379C74.2031 44.4346 74.086 44.1255 73.8517 43.9108C73.6175 43.6961 73.2727 43.5887 72.8172 43.5887C72.5114 43.5887 72.2122 43.6408 71.9194 43.7449C71.6266 43.8425 71.3794 43.9759 71.1777 44.145L70.7873 43.4424C71.054 43.2276 71.3728 43.065 71.7437 42.9544C72.1146 42.8373 72.5082 42.7787 72.9246 42.7787ZM72.7099 47.3364C73.0677 47.3364 73.3768 47.2583 73.637 47.1021C73.8973 46.9395 74.086 46.7118 74.2031 46.419V45.6968H72.7587C71.9649 45.6968 71.568 45.9635 71.568 46.497C71.568 46.7573 71.6689 46.9622 71.8706 47.1119C72.0723 47.2615 72.352 47.3364 72.7099 47.3364ZM79.7821 47.6975C79.6455 47.8146 79.4763 47.9057 79.2746 47.9707C79.0729 48.0293 78.8647 48.0586 78.65 48.0586C78.1295 48.0586 77.7261 47.9187 77.4398 47.6389C77.1536 47.3591 77.0104 46.959 77.0104 46.4385V43.5985H76.1321V42.8275H77.0104V41.6954H77.9473V42.8275H79.4308V43.5985H77.9473V46.3995C77.9473 46.6792 78.0157 46.8939 78.1523 47.0436C78.2954 47.1932 78.4971 47.268 78.7574 47.268C79.0436 47.268 79.2876 47.1867 79.4893 47.0241L79.7821 47.6975ZM85.418 45.443C85.418 45.5146 85.4115 45.6089 85.3985 45.7261H81.202C81.2605 46.1815 81.459 46.5491 81.7973 46.8289C82.1421 47.1021 82.5683 47.2388 83.0758 47.2388C83.6939 47.2388 84.1916 47.0306 84.569 46.6142L85.0862 47.2192C84.852 47.4925 84.5592 47.7007 84.2079 47.8438C83.863 47.987 83.4759 48.0586 83.0465 48.0586C82.5 48.0586 82.0152 47.9479 81.5923 47.7267C81.1694 47.499 80.8409 47.1835 80.6066 46.7801C80.3789 46.3767 80.2651 45.9212 80.2651 45.4138C80.2651 44.9128 80.3757 44.4606 80.5969 44.0572C80.8246 43.6538 81.1336 43.3415 81.524 43.1203C81.9209 42.8926 82.3666 42.7787 82.8611 42.7787C83.3555 42.7787 83.7947 42.8926 84.1786 43.1203C84.569 43.3415 84.8715 43.6538 85.0862 44.0572C85.3074 44.4606 85.418 44.9225 85.418 45.443ZM82.8611 43.5692C82.4121 43.5692 82.0348 43.7059 81.729 43.9791C81.4297 44.2524 81.254 44.6102 81.202 45.0527H84.5202C84.4681 44.6167 84.2892 44.2621 83.9834 43.9889C83.6841 43.7091 83.31 43.5692 82.8611 43.5692ZM83.4466 40.8073H84.6373L82.9977 42.076H82.1193L83.4466 40.8073ZM87.6169 43.6961C87.7795 43.3968 88.0203 43.1691 88.3391 43.0129C88.6579 42.8568 89.045 42.7787 89.5004 42.7787V43.6863C89.4484 43.6798 89.3768 43.6766 89.2857 43.6766C88.7782 43.6766 88.3781 43.8295 88.0853 44.1353C87.799 44.4346 87.6559 44.864 87.6559 45.4235V48H86.719V42.8275H87.6169V43.6961ZM92.1767 48.0586C91.7538 48.0586 91.3472 48.0033 90.9568 47.8926C90.5664 47.7755 90.2606 47.6291 90.0394 47.4535L90.4298 46.7118C90.6575 46.8744 90.934 47.0045 91.2593 47.1021C91.5847 47.1997 91.9132 47.2485 92.245 47.2485C93.0648 47.2485 93.4747 47.0143 93.4747 46.5458C93.4747 46.3897 93.4194 46.2661 93.3088 46.175C93.1982 46.0839 93.0583 46.0188 92.8892 45.9798C92.7265 45.9343 92.4923 45.8855 92.1865 45.8334C91.7701 45.7683 91.4285 45.6935 91.1617 45.6089C90.9015 45.5244 90.677 45.3812 90.4883 45.1795C90.2997 44.9778 90.2053 44.6948 90.2053 44.3305C90.2053 43.862 90.4005 43.4879 90.7909 43.2081C91.1813 42.9218 91.705 42.7787 92.3622 42.7787C92.707 42.7787 93.0518 42.821 93.3967 42.9056C93.7415 42.9902 94.0245 43.104 94.2457 43.2472L93.8456 43.9889C93.4227 43.7156 92.9249 43.579 92.3524 43.579C91.9555 43.579 91.653 43.644 91.4448 43.7742C91.2366 43.9043 91.1325 44.0767 91.1325 44.2914C91.1325 44.4606 91.191 44.594 91.3081 44.6916C91.4253 44.7892 91.5684 44.8607 91.7376 44.9063C91.9132 44.9518 92.1572 45.0039 92.4695 45.0624C92.8859 45.134 93.221 45.2121 93.4747 45.2966C93.735 45.3747 93.9562 45.5113 94.1384 45.7065C94.3205 45.9017 94.4116 46.175 94.4116 46.5263C94.4116 46.9948 94.2099 47.3689 93.8065 47.6487C93.4097 47.9219 92.8664 48.0586 92.1767 48.0586ZM97.593 45.5894L96.5194 46.5849V48H95.5825V40.7585H96.5194V45.404L99.3399 42.8275H100.472L98.2957 44.9648L100.687 48H99.5351L97.593 45.5894ZM106.052 45.443C106.052 45.5146 106.045 45.6089 106.032 45.7261H101.836C101.894 46.1815 102.093 46.5491 102.431 46.8289C102.776 47.1021 103.202 47.2388 103.71 47.2388C104.328 47.2388 104.826 47.0306 105.203 46.6142L105.72 47.2192C105.486 47.4925 105.193 47.7007 104.842 47.8438C104.497 47.987 104.11 48.0586 103.68 48.0586C103.134 48.0586 102.649 47.9479 102.226 47.7267C101.803 47.499 101.475 47.1835 101.241 46.7801C101.013 46.3767 100.899 45.9212 100.899 45.4138C100.899 44.9128 101.01 44.4606 101.231 44.0572C101.459 43.6538 101.768 43.3415 102.158 43.1203C102.555 42.8926 103.001 42.7787 103.495 42.7787C103.989 42.7787 104.429 42.8926 104.813 43.1203C105.203 43.3415 105.505 43.6538 105.72 44.0572C105.941 44.4606 106.052 44.9225 106.052 45.443ZM103.495 43.5692C103.046 43.5692 102.669 43.7059 102.363 43.9791C102.064 44.2524 101.888 44.6102 101.836 45.0527H105.154C105.102 44.6167 104.923 44.2621 104.617 43.9889C104.318 43.7091 103.944 43.5692 103.495 43.5692ZM104.081 40.8073H105.271L103.632 42.076H102.753L104.081 40.8073ZM111.857 42.7787C112.573 42.7787 113.12 42.9544 113.497 43.3057C113.881 43.6571 114.073 44.1808 114.073 44.877V48H113.185V47.3168C113.029 47.5576 112.804 47.743 112.511 47.8731C112.225 47.9967 111.883 48.0586 111.487 48.0586C110.908 48.0586 110.442 47.9187 110.091 47.6389C109.746 47.3591 109.574 46.9915 109.574 46.5361C109.574 46.0806 109.74 45.7163 110.071 45.443C110.403 45.1633 110.93 45.0234 111.652 45.0234H113.136V44.8379C113.136 44.4346 113.019 44.1255 112.785 43.9108C112.55 43.6961 112.206 43.5887 111.75 43.5887C111.444 43.5887 111.145 43.6408 110.852 43.7449C110.559 43.8425 110.312 43.9759 110.111 44.145L109.72 43.4424C109.987 43.2276 110.306 43.065 110.677 42.9544C111.047 42.8373 111.441 42.7787 111.857 42.7787ZM111.643 47.3364C112.001 47.3364 112.31 47.2583 112.57 47.1021C112.83 46.9395 113.019 46.7118 113.136 46.419V45.6968H111.692C110.898 45.6968 110.501 45.9635 110.501 46.497C110.501 46.7573 110.602 46.9622 110.803 47.1119C111.005 47.2615 111.285 47.3364 111.643 47.3364ZM121.336 47.6975C121.199 47.8146 121.03 47.9057 120.828 47.9707C120.627 48.0293 120.419 48.0586 120.204 48.0586C119.683 48.0586 119.28 47.9187 118.994 47.6389C118.707 47.3591 118.564 46.959 118.564 46.4385V43.5985H117.686V42.8275H118.564V41.6954H119.501V42.8275H120.985V43.5985H119.501V46.3995C119.501 46.6792 119.569 46.8939 119.706 47.0436C119.849 47.1932 120.051 47.268 120.311 47.268C120.597 47.268 120.841 47.1867 121.043 47.0241L121.336 47.6975ZM124.512 48.0586C123.998 48.0586 123.536 47.9447 123.127 47.717C122.717 47.4893 122.395 47.177 122.16 46.7801C121.933 46.3767 121.819 45.9212 121.819 45.4138C121.819 44.9063 121.933 44.4541 122.16 44.0572C122.395 43.6538 122.717 43.3415 123.127 43.1203C123.536 42.8926 123.998 42.7787 124.512 42.7787C125.026 42.7787 125.485 42.8926 125.889 43.1203C126.298 43.3415 126.617 43.6538 126.845 44.0572C127.079 44.4541 127.196 44.9063 127.196 45.4138C127.196 45.9212 127.079 46.3767 126.845 46.7801C126.617 47.177 126.298 47.4893 125.889 47.717C125.485 47.9447 125.026 48.0586 124.512 48.0586ZM124.512 47.2388C124.844 47.2388 125.14 47.1639 125.401 47.0143C125.667 46.8581 125.875 46.6434 126.025 46.3702C126.175 46.0904 126.25 45.7716 126.25 45.4138C126.25 45.0559 126.175 44.7404 126.025 44.4671C125.875 44.1873 125.667 43.9726 125.401 43.823C125.14 43.6733 124.844 43.5985 124.512 43.5985C124.181 43.5985 123.881 43.6733 123.615 43.823C123.354 43.9726 123.146 44.1873 122.99 44.4671C122.84 44.7404 122.765 45.0559 122.765 45.4138C122.765 45.7716 122.84 46.0904 122.99 46.3702C123.146 46.6434 123.354 46.8581 123.615 47.0143C123.881 47.1639 124.181 47.2388 124.512 47.2388ZM131.234 42.7787C131.735 42.7787 132.184 42.8893 132.581 43.1105C132.978 43.3317 133.287 43.6408 133.508 44.0377C133.736 44.4346 133.85 44.8933 133.85 45.4138C133.85 45.9343 133.736 46.3962 133.508 46.7996C133.287 47.1965 132.978 47.5055 132.581 47.7267C132.184 47.9479 131.735 48.0586 131.234 48.0586C130.864 48.0586 130.522 47.987 130.21 47.8438C129.904 47.7007 129.644 47.4925 129.429 47.2192V49.8933H128.492V42.8275H129.39V43.6473C129.598 43.361 129.862 43.1463 130.18 43.0032C130.499 42.8535 130.851 42.7787 131.234 42.7787ZM131.156 47.2388C131.488 47.2388 131.784 47.1639 132.044 47.0143C132.311 46.8581 132.519 46.6434 132.669 46.3702C132.825 46.0904 132.903 45.7716 132.903 45.4138C132.903 45.0559 132.825 44.7404 132.669 44.4671C132.519 44.1873 132.311 43.9726 132.044 43.823C131.784 43.6733 131.488 43.5985 131.156 43.5985C130.831 43.5985 130.535 43.6766 130.268 43.8327C130.008 43.9824 129.8 44.1938 129.644 44.4671C129.494 44.7404 129.419 45.0559 129.419 45.4138C129.419 45.7716 129.494 46.0904 129.644 46.3702C129.793 46.6434 130.001 46.8581 130.268 47.0143C130.535 47.1639 130.831 47.2388 131.156 47.2388ZM139.819 45.443C139.819 45.5146 139.813 45.6089 139.8 45.7261H135.603C135.662 46.1815 135.86 46.5491 136.198 46.8289C136.543 47.1021 136.969 47.2388 137.477 47.2388C138.095 47.2388 138.593 47.0306 138.97 46.6142L139.487 47.2192C139.253 47.4925 138.96 47.7007 138.609 47.8438C138.264 47.987 137.877 48.0586 137.448 48.0586C136.901 48.0586 136.416 47.9479 135.993 47.7267C135.571 47.499 135.242 47.1835 135.008 46.7801C134.78 46.3767 134.666 45.9212 134.666 45.4138C134.666 44.9128 134.777 44.4606 134.998 44.0572C135.226 43.6538 135.535 43.3415 135.925 43.1203C136.322 42.8926 136.768 42.7787 137.262 42.7787C137.757 42.7787 138.196 42.8926 138.58 43.1203C138.97 43.3415 139.273 43.6538 139.487 44.0572C139.709 44.4606 139.819 44.9225 139.819 45.443ZM137.262 43.5692C136.813 43.5692 136.436 43.7059 136.13 43.9791C135.831 44.2524 135.655 44.6102 135.603 45.0527H138.921C138.869 44.6167 138.69 44.2621 138.385 43.9889C138.085 43.7091 137.711 43.5692 137.262 43.5692ZM143.882 42.7787C144.539 42.7787 145.06 42.9706 145.444 43.3545C145.834 43.7319 146.029 44.2882 146.029 45.0234V48H145.092V45.1307C145.092 44.6297 144.972 44.2524 144.731 43.9986C144.49 43.7449 144.146 43.618 143.697 43.618C143.189 43.618 142.789 43.7677 142.496 44.067C142.203 44.3597 142.057 44.7826 142.057 45.3357V48H141.12V42.8275H142.018V43.6083C142.207 43.3415 142.46 43.1366 142.779 42.9934C143.105 42.8503 143.472 42.7787 143.882 42.7787ZM149.647 42.7787C150.362 42.7787 150.909 42.9544 151.286 43.3057C151.67 43.6571 151.862 44.1808 151.862 44.877V48H150.974V47.3168C150.818 47.5576 150.593 47.743 150.3 47.8731C150.014 47.9967 149.673 48.0586 149.276 48.0586C148.697 48.0586 148.231 47.9187 147.88 47.6389C147.535 47.3591 147.363 46.9915 147.363 46.5361C147.363 46.0806 147.529 45.7163 147.861 45.443C148.192 45.1633 148.719 45.0234 149.442 45.0234H150.925V44.8379C150.925 44.4346 150.808 44.1255 150.574 43.9108C150.34 43.6961 149.995 43.5887 149.539 43.5887C149.233 43.5887 148.934 43.6408 148.641 43.7449C148.349 43.8425 148.101 43.9759 147.9 44.145L147.509 43.4424C147.776 43.2276 148.095 43.065 148.466 42.9544C148.837 42.8373 149.23 42.7787 149.647 42.7787ZM149.432 47.3364C149.79 47.3364 150.099 47.2583 150.359 47.1021C150.619 46.9395 150.808 46.7118 150.925 46.419V45.6968H149.481C148.687 45.6968 148.29 45.9635 148.29 46.497C148.29 46.7573 148.391 46.9622 148.593 47.1119C148.794 47.2615 149.074 47.3364 149.432 47.3364ZM150.31 40.8073H151.501L149.861 42.076H148.983L150.31 40.8073ZM154.494 43.6961C154.656 43.3968 154.897 43.1691 155.216 43.0129C155.535 42.8568 155.922 42.7787 156.377 42.7787V43.6863C156.325 43.6798 156.254 43.6766 156.163 43.6766C155.655 43.6766 155.255 43.8295 154.962 44.1353C154.676 44.4346 154.533 44.864 154.533 45.4235V48H153.596V42.8275H154.494V43.6961ZM156.738 40.8073L155.44 42.076H154.542L153.244 40.8073H154.094L154.991 41.549L155.889 40.8073H156.738ZM159.054 48.0586C158.631 48.0586 158.224 48.0033 157.834 47.8926C157.443 47.7755 157.137 47.6291 156.916 47.4535L157.307 46.7118C157.534 46.8744 157.811 47.0045 158.136 47.1021C158.461 47.1997 158.79 47.2485 159.122 47.2485C159.942 47.2485 160.352 47.0143 160.352 46.5458C160.352 46.3897 160.296 46.2661 160.186 46.175C160.075 46.0839 159.935 46.0188 159.766 45.9798C159.603 45.9343 159.369 45.8855 159.063 45.8334C158.647 45.7683 158.305 45.6935 158.039 45.6089C157.778 45.5244 157.554 45.3812 157.365 45.1795C157.176 44.9778 157.082 44.6948 157.082 44.3305C157.082 43.862 157.277 43.4879 157.668 43.2081C158.058 42.9218 158.582 42.7787 159.239 42.7787C159.584 42.7787 159.929 42.821 160.273 42.9056C160.618 42.9902 160.901 43.104 161.123 43.2472L160.722 43.9889C160.299 43.7156 159.802 43.579 159.229 43.579C158.832 43.579 158.53 43.644 158.322 43.7742C158.113 43.9043 158.009 44.0767 158.009 44.2914C158.009 44.4606 158.068 44.594 158.185 44.6916C158.302 44.7892 158.445 44.8607 158.614 44.9063C158.79 44.9518 159.034 45.0039 159.346 45.0624C159.763 45.134 160.098 45.2121 160.352 45.2966C160.612 45.3747 160.833 45.5113 161.015 45.7065C161.197 45.9017 161.288 46.175 161.288 46.5263C161.288 46.9948 161.087 47.3689 160.683 47.6487C160.286 47.9219 159.743 48.0586 159.054 48.0586ZM164.47 45.5894L163.396 46.5849V48H162.459V40.7585H163.396V45.404L166.217 42.8275H167.349L165.172 44.9648L167.564 48H166.412L164.47 45.5894ZM172.929 45.443C172.929 45.5146 172.922 45.6089 172.909 45.7261H168.713C168.771 46.1815 168.97 46.5491 169.308 46.8289C169.653 47.1021 170.079 47.2388 170.586 47.2388C171.205 47.2388 171.702 47.0306 172.08 46.6142L172.597 47.2192C172.363 47.4925 172.07 47.7007 171.719 47.8438C171.374 47.987 170.987 48.0586 170.557 48.0586C170.011 48.0586 169.526 47.9479 169.103 47.7267C168.68 47.499 168.352 47.1835 168.117 46.7801C167.89 46.3767 167.776 45.9212 167.776 45.4138C167.776 44.9128 167.886 44.4606 168.108 44.0572C168.335 43.6538 168.644 43.3415 169.035 43.1203C169.432 42.8926 169.877 42.7787 170.372 42.7787C170.866 42.7787 171.305 42.8926 171.689 43.1203C172.08 43.3415 172.382 43.6538 172.597 44.0572C172.818 44.4606 172.929 44.9225 172.929 45.443ZM170.372 43.5692C169.923 43.5692 169.545 43.7059 169.24 43.9791C168.94 44.2524 168.765 44.6102 168.713 45.0527H172.031C171.979 44.6167 171.8 44.2621 171.494 43.9889C171.195 43.7091 170.821 43.5692 170.372 43.5692ZM170.957 40.8073H172.148L170.508 42.076H169.63L170.957 40.8073ZM179.593 42.7787C180.094 42.7787 180.543 42.8893 180.94 43.1105C181.337 43.3317 181.646 43.6408 181.867 44.0377C182.095 44.4346 182.209 44.8933 182.209 45.4138C182.209 45.9343 182.095 46.3962 181.867 46.7996C181.646 47.1965 181.337 47.5055 180.94 47.7267C180.543 47.9479 180.094 48.0586 179.593 48.0586C179.222 48.0586 178.881 47.987 178.568 47.8438C178.263 47.7007 178.002 47.4925 177.788 47.2192V49.8933H176.851V42.8275H177.749V43.6473C177.957 43.361 178.22 43.1463 178.539 43.0032C178.858 42.8535 179.209 42.7787 179.593 42.7787ZM179.515 47.2388C179.847 47.2388 180.143 47.1639 180.403 47.0143C180.67 46.8581 180.878 46.6434 181.028 46.3702C181.184 46.0904 181.262 45.7716 181.262 45.4138C181.262 45.0559 181.184 44.7404 181.028 44.4671C180.878 44.1873 180.67 43.9726 180.403 43.823C180.143 43.6733 179.847 43.5985 179.515 43.5985C179.19 43.5985 178.894 43.6766 178.627 43.8327C178.367 43.9824 178.158 44.1938 178.002 44.4671C177.853 44.7404 177.778 45.0559 177.778 45.4138C177.778 45.7716 177.853 46.0904 178.002 46.3702C178.152 46.6434 178.36 46.8581 178.627 47.0143C178.894 47.1639 179.19 47.2388 179.515 47.2388ZM184.401 43.6961C184.564 43.3968 184.804 43.1691 185.123 43.0129C185.442 42.8568 185.829 42.7787 186.285 42.7787V43.6863C186.232 43.6798 186.161 43.6766 186.07 43.6766C185.562 43.6766 185.162 43.8295 184.869 44.1353C184.583 44.4346 184.44 44.864 184.44 45.4235V48H183.503V42.8275H184.401V43.6961ZM189.313 42.7787C190.029 42.7787 190.576 42.9544 190.953 43.3057C191.337 43.6571 191.529 44.1808 191.529 44.877V48H190.641V47.3168C190.484 47.5576 190.26 47.743 189.967 47.8731C189.681 47.9967 189.339 48.0586 188.942 48.0586C188.363 48.0586 187.898 47.9187 187.547 47.6389C187.202 47.3591 187.03 46.9915 187.03 46.5361C187.03 46.0806 187.196 45.7163 187.527 45.443C187.859 45.1633 188.386 45.0234 189.108 45.0234H190.592V44.8379C190.592 44.4346 190.475 44.1255 190.24 43.9108C190.006 43.6961 189.661 43.5887 189.206 43.5887C188.9 43.5887 188.601 43.6408 188.308 43.7449C188.015 43.8425 187.768 43.9759 187.566 44.145L187.176 43.4424C187.443 43.2276 187.762 43.065 188.132 42.9544C188.503 42.8373 188.897 42.7787 189.313 42.7787ZM189.099 47.3364C189.456 47.3364 189.765 47.2583 190.026 47.1021C190.286 46.9395 190.475 46.7118 190.592 46.419V45.6968H189.147C188.354 45.6968 187.957 45.9635 187.957 46.497C187.957 46.7573 188.058 46.9622 188.259 47.1119C188.461 47.2615 188.741 47.3364 189.099 47.3364ZM189.977 40.8073H191.168L189.528 42.076H188.65L189.977 40.8073ZM195.546 48.0586C195.019 48.0586 194.547 47.9447 194.13 47.717C193.721 47.4893 193.398 47.177 193.164 46.7801C192.93 46.3767 192.813 45.9212 192.813 45.4138C192.813 44.9063 192.93 44.4541 193.164 44.0572C193.398 43.6538 193.721 43.3415 194.13 43.1203C194.547 42.8926 195.019 42.7787 195.546 42.7787C196.014 42.7787 196.43 42.8731 196.795 43.0617C197.166 43.2504 197.452 43.5237 197.654 43.8815L196.941 44.3402C196.778 44.093 196.577 43.9075 196.336 43.7839C196.095 43.6603 195.829 43.5985 195.536 43.5985C195.197 43.5985 194.892 43.6733 194.618 43.823C194.352 43.9726 194.14 44.1873 193.984 44.4671C193.834 44.7404 193.76 45.0559 193.76 45.4138C193.76 45.7781 193.834 46.1002 193.984 46.3799C194.14 46.6532 194.352 46.8647 194.618 47.0143C194.892 47.1639 195.197 47.2388 195.536 47.2388C195.829 47.2388 196.095 47.177 196.336 47.0533C196.577 46.9297 196.778 46.7443 196.941 46.497L197.654 46.946C197.452 47.3038 197.166 47.5803 196.795 47.7755C196.43 47.9642 196.014 48.0586 195.546 48.0586ZM203.465 45.443C203.465 45.5146 203.459 45.6089 203.446 45.7261H199.249C199.308 46.1815 199.506 46.5491 199.844 46.8289C200.189 47.1021 200.615 47.2388 201.123 47.2388C201.741 47.2388 202.239 47.0306 202.616 46.6142L203.133 47.2192C202.899 47.4925 202.606 47.7007 202.255 47.8438C201.91 47.987 201.523 48.0586 201.094 48.0586C200.547 48.0586 200.062 47.9479 199.639 47.7267C199.216 47.499 198.888 47.1835 198.654 46.7801C198.426 46.3767 198.312 45.9212 198.312 45.4138C198.312 44.9128 198.423 44.4606 198.644 44.0572C198.872 43.6538 199.181 43.3415 199.571 43.1203C199.968 42.8926 200.414 42.7787 200.908 42.7787C201.403 42.7787 201.842 42.8926 202.226 43.1203C202.616 43.3415 202.919 43.6538 203.133 44.0572C203.354 44.4606 203.465 44.9225 203.465 45.443ZM200.908 43.5692C200.459 43.5692 200.082 43.7059 199.776 43.9791C199.477 44.2524 199.301 44.6102 199.249 45.0527H202.567C202.515 44.6167 202.336 44.2621 202.03 43.9889C201.731 43.7091 201.357 43.5692 200.908 43.5692Z" fill="#2C2C2C"/> <path d="M25.3388 49.9563L25.3388 9.11803C28.7286 11.4998 30.7746 12.7793 32.281 15.8853L32.281 49.9563L25.3388 49.9563Z" fill="#2C2C2C"/> <path d="M6.94211 49.9563L6.94213 9.11803C3.55225 11.4998 1.5063 12.7793 -8.94307e-05 15.8853L-8.92586e-05 49.9563L6.94211 49.9563Z" fill="#2C2C2C"/> <path d="M11.8015 40.1386L11.8015 6.00578C13.3386 4.18754 14.7485 2.8325 16.1672 -2.15967e-06C17.4194 2.33874 18.2318 3.67123 20.4793 6.00578L20.4793 40.1386L11.8015 40.1386Z" fill="#2C2C2C"/> <rect x="11.8793" y="44.3997" width="8.52225" height="5.6815" fill="#FF4B4B"/> </svg>