<svg xmlns="http://www.w3.org/2000/svg" width="71" height="70" fill="none" viewBox="0 0 71 70"><path fill="#2D2D2D" d="M29.3951 32.9954C28.7018 33.4516 27.9156 33.9692 27.0493 34.65C26.7891 34.839 24.4774 36.5459 23.4848 38.2047C22.4685 39.8997 22.14 42.6627 22.126 42.7799C22.0918 43.0763 22.186 43.3735 22.3841 43.596C22.5829 43.8185 22.8668 43.9461 23.1654 43.9461H33.7869C34.3651 43.9461 34.8332 43.4781 34.8332 42.8998C34.8332 42.3216 34.3651 41.8535 33.7869 41.8535H24.4021C24.5793 41.0081 24.8688 39.9646 25.2796 39.2796C25.9346 38.1844 27.6673 36.7879 28.3098 36.3192C29.1384 35.6684 29.8855 35.1773 30.5447 34.7434C32.3297 33.5688 33.7401 32.641 33.7401 30.224C33.7401 27.076 31.1809 24.5146 28.0342 24.5146C24.8841 24.5146 22.322 27.076 22.322 30.224C22.322 30.8023 22.7901 31.2704 23.3684 31.2704C23.9466 31.2704 24.4147 30.8023 24.4147 30.224C24.4147 28.2298 26.0386 26.6073 28.0342 26.6073C30.0264 26.6073 31.6475 28.2298 31.6475 30.224C31.6475 31.458 31.1432 31.8451 29.3951 32.9954Z"/><path fill="#2D2D2D" d="M44.194 44.0451C44.7722 44.0451 45.2403 43.5771 45.2403 42.9988V39.179H47.5387C48.117 39.179 48.585 38.711 48.585 38.1327C48.585 37.5545 48.117 37.0864 47.5387 37.0864H45.2403V25.6599C45.2403 25.1961 44.9348 24.788 44.4897 24.6569C44.0461 24.525 43.5669 24.7029 43.3151 25.0921L35.2514 37.5649C35.0436 37.8865 35.0282 38.2966 35.211 38.6336C35.3944 38.9698 35.7467 39.1797 36.1297 39.1797H43.147V42.9995C43.1477 43.5771 43.6164 44.0451 44.194 44.0451ZM38.0528 37.0864L43.1477 29.2055V37.0864H38.0528Z"/><path fill="#2D2D2D" d="M64.4538 30.0817C64.0186 29.7029 63.3573 29.7476 62.9778 30.1835L60.9724 32.4868C59.7789 18.9607 48.3936 8.31689 34.5626 8.31689C19.9365 8.31689 8.03711 20.2135 8.03711 34.8361C8.03711 49.4602 19.9365 61.3582 34.5626 61.3582C43.93 61.3582 52.4205 56.5661 57.2733 48.5401C57.5726 48.0462 57.4135 47.4024 56.919 47.1032C56.4244 46.8053 55.7806 46.963 55.482 47.4575C51.0114 54.8515 43.1913 59.2655 34.5626 59.2655C21.0903 59.2655 10.1297 48.3064 10.1297 34.8361C10.1297 21.3673 21.0903 10.4095 34.5626 10.4095C47.3214 10.4095 57.8202 20.2442 58.8923 32.7296L56.3435 30.5163C55.9082 30.1375 55.2469 30.1842 54.8675 30.6202C54.4887 31.0561 54.5354 31.7174 54.9714 32.0962L59.3736 35.918C59.5717 36.0903 59.8159 36.174 60.0593 36.174C60.3509 36.174 60.6417 36.0527 60.8489 35.8148L64.5557 31.557C64.9358 31.1217 64.8898 30.4611 64.4538 30.0817Z"/></svg>