<svg xmlns="http://www.w3.org/2000/svg" width="71" height="70" viewBox="0 0 71 70" fill="none"> <path d="M39.9298 47.0607L48.8305 32.7492C48.8619 32.6989 48.8884 32.6466 48.91 32.5922C50.4774 30.0308 51.3047 27.1074 51.3047 24.1247C51.3047 15.1613 44.0119 7.86914 35.047 7.86914C26.0843 7.86914 18.7928 15.1613 18.7928 24.1247C18.7928 27.1109 19.6215 30.035 21.1903 32.595C21.2098 32.6424 21.2328 32.6885 21.26 32.7338L29.8447 47.1011C23.1434 48.0958 18.7461 50.8986 18.7461 54.304C18.7461 58.626 25.7453 61.8849 35.0261 61.8849C44.3069 61.8849 51.3054 58.626 51.3054 54.304C51.3047 50.826 46.8006 48.0121 39.9298 47.0607ZM23.0604 31.6401C21.6374 29.3765 20.8855 26.7782 20.8855 24.1254C20.8855 16.3157 27.238 9.96247 35.047 9.96247C42.8581 9.96247 49.2121 16.3157 49.2121 24.1254C49.2121 26.7768 48.4608 29.3751 47.0385 31.6408C47.0064 31.6917 46.9792 31.7447 46.9576 31.7998L37.4501 47.0872C37.2638 47.2344 37.1306 47.4429 37.0783 47.6857L34.8105 51.3318L23.149 31.8159C23.1246 31.7552 23.0953 31.6959 23.0604 31.6401ZM35.0254 59.7916C26.6646 59.7916 20.838 56.8996 20.838 54.3033C20.838 51.7552 25.9036 49.689 31.0124 49.0564L33.8933 53.8785C34.0802 54.1917 34.4171 54.3849 34.7819 54.3877C34.7847 54.3877 34.7882 54.3877 34.791 54.3877C35.1523 54.3877 35.4886 54.2008 35.679 53.8938L38.7105 49.0194C45.2946 49.7428 49.2114 52.226 49.2114 54.3026C49.2121 56.8996 43.3855 59.7916 35.0254 59.7916Z" fill="#2D2D2D"></path> <path d="M41.0269 24.1256C41.0269 20.8158 38.3344 18.1226 35.0239 18.1226C31.714 18.1226 29.0215 20.8158 29.0215 24.1256C29.0215 27.4355 31.714 30.1287 35.0239 30.1287C38.3344 30.1287 41.0269 27.4355 41.0269 24.1256ZM31.1134 24.1256C31.1134 21.9695 32.8677 20.2152 35.0232 20.2152C37.18 20.2152 38.9336 21.9695 38.9336 24.1256C38.9336 26.2817 37.1793 28.0361 35.0232 28.0361C32.8677 28.0361 31.1134 26.2817 31.1134 24.1256Z" fill="#2D2D2D"></path> </svg>