<svg xmlns="http://www.w3.org/2000/svg" width="70" height="70" viewBox="0 0 70 70" fill="none"> <path d="M56.4172 39.3484C56.3759 38.5518 56.3164 37.7195 56.2289 36.8508C55.7032 31.6484 54.1002 24.3446 49.4438 19.0883C45.3831 14.5054 39.7075 12.1821 32.5717 12.1821C29.0766 12.1821 25.8531 12.9241 23.0636 13.9825C22.9467 14.0056 22.8389 14.0511 22.7388 14.1099C17.3684 16.2204 13.6752 19.4677 12.88 20.7207C6.84531 25.8335 3.41602 33.1954 3.41602 41.1726C3.41602 41.2608 3.42722 41.349 3.44892 41.4344C3.50702 41.6584 4.93502 46.9658 11.0992 49.7525C19.7029 53.6417 30.6425 57.8144 42.3213 57.8144C44.6397 57.8144 46.9861 57.6506 49.3493 57.2866C64.6226 54.9388 66.5812 51.4073 66.5812 48.5926C66.5819 47.9675 66.5819 46.0726 56.4172 39.3484ZM47.8667 20.475C55.1348 28.6713 54.5062 42.6601 54.243 45.962L42.0091 49.021C42.1435 46.0978 42.3353 39.2308 41.5884 32.9791C40.6833 25.4107 38.3348 16.9001 28.8624 14.5789C30.0454 14.392 31.2823 14.2821 32.5717 14.2821C39.0768 14.2821 44.2232 16.3653 47.8667 20.475ZM23.4619 16.0622C33.2654 16.0937 38.0695 21.2387 39.5031 33.2276C40.1996 39.0593 40.047 45.6183 39.921 48.6332L36.1151 46.4779C36.4301 43.2054 37.2834 29.7283 30.8238 23.3583C26.7407 19.3326 22.428 18.1258 19.0365 18.2896C20.286 17.5147 21.7749 16.7307 23.4619 16.0622ZM14.5404 22.0766C14.6146 22.022 14.6853 21.966 14.7497 21.9107C14.9569 21.7441 15.1613 21.5761 15.3741 21.4151C17.7723 19.8576 23.7804 19.3634 29.3503 24.8535C34.9027 30.3289 34.3385 42.4851 34.0487 45.9711C31.3019 45.8535 23.1994 45.3075 16.5949 42.847C12.1968 41.209 8.77662 38.4027 6.42322 34.5128C7.76162 29.6737 10.5532 25.3526 14.5404 22.0766ZM49.0308 55.2111C35.3087 57.3237 22.0122 52.3803 11.9651 47.8387C7.15471 45.6652 5.74422 41.7592 5.51742 41.0263C5.52442 39.7873 5.63152 38.5672 5.81422 37.3674C8.93692 41.5513 12.9115 43.7157 15.8627 44.8147C23.5963 47.6959 32.9651 48.0543 34.7123 48.0963L40.3662 51.2988C40.3732 51.303 40.3816 51.3037 40.3886 51.3079C40.4586 51.3457 40.5328 51.3772 40.6112 51.3982C40.6252 51.4017 40.6392 51.4024 40.6532 51.4052C40.7057 51.4171 40.7582 51.4283 40.8135 51.4325C40.8366 51.4346 40.8597 51.4353 40.8821 51.4353H40.8828C40.8828 51.4353 40.8828 51.4353 40.8835 51.4353C40.8842 51.4353 40.8849 51.4353 40.8849 51.4353C40.9654 51.4353 41.0431 51.4234 41.118 51.4059C41.1243 51.4045 41.1313 51.4052 41.1376 51.4038L55.4736 47.8191C55.8957 47.7141 56.2086 47.3592 56.2611 46.9273C56.2758 46.8076 56.5033 44.8581 56.4907 41.9293C61.5048 45.3432 64.2985 47.852 64.4812 48.5933C64.4819 51.408 59.283 53.6347 49.0308 55.2111Z" fill="#2D2D2D"></path> </svg> 